#!OML:ASF F:\VICON\USERDATA\INSTALL\rory3\rory3.ASF
:FULLY-SPECIFIED
:DEGREES
1936
root -0.950789 18.8038 1.60956 -8.95725 -40.5173 6.42228
lowerback 8.80458 1.21624 2.08454
upperback 2.37437 1.78797 0.52303
thorax -2.42557 0.871766 -0.821397
lowerneck -3.1427 -2.52249 -7.59223
upperneck 2.54898 -3.21716 5.66358
head 1.61079 -1.58671 3.09957
rclavicle -7.09164e-014 7.15625e-015
rhumerus -50.9579 44.0931 -95.9705
rradius 92.3473
rwrist -12.4356
rhand 31.1093 -13.1516
rfingers 7.12502
rthumb 54.7014 -31.5041
lclavicle -7.09164e-014 7.15625e-015
lhumerus -38.5384 -24.1166 89.4956
lradius 121.159
lwrist 7.24571
lhand 9.12458 28.0505
lfingers 7.12502
lthumb 34.2956 54.7682
rfemur -3.62011 16.3995 19.5436
rtibia 26.7974
rfoot -18.1216 -16.3735
rtoes 4.07068
lfemur -24.7021 1.18616 -5.20613
ltibia 35.7671
lfoot 6.72018 -0.234905
ltoes -4.20177
1937
root -0.978922 18.8224 1.6083 -9.21609 -40.291 7.02079
lowerback 8.84981 1.18127 1.80789
upperback 2.38892 1.71501 0.419773
thorax -2.44281 0.836352 -0.766046
lowerneck -3.03519 -2.50555 -7.51163
upperneck 2.34539 -3.20088 5.69
head 1.52247 -1.57728 3.09397
rclavicle -6.98728e-014 5.56597e-015
rhumerus -52.4053 43.9913 -97.114
rradius 92.6684
rwrist -12.8225
rhand 34.8494 -12.6022
rfingers 7.12502
rthumb 58.0059 -28.3183
lclavicle -6.98728e-014 5.56597e-015
lhumerus -38.4155 -24.0823 89.2443
lradius 121.436
lwrist 7.35967
lhand 9.20267 28.0344
lfingers 7.12502
lthumb 34.3697 54.7353
rfemur -3.48771 16.4435 19.0939
rtibia 26.5101
rfoot -18.1742 -16.5419
rtoes 4.41806
lfemur -24.5215 0.614472 -5.54919
ltibia 33.5594
lfoot 6.4792 0.478193
ltoes -4.84267
1938
root -1.00721 18.8462 1.6166 -9.81559 -40.0066 7.98118
lowerback 8.86337 1.12566 1.3407
upperback 2.47013 1.59288 0.226756
thorax -2.37701 0.777858 -0.68932
lowerneck -2.97735 -2.4628 -7.42398
upperneck 2.20451 -3.14766 5.69519
head 1.46034 -1.54959 3.08062
rclavicle 3.61788e-014 6.36111e-015
rhumerus -53.4961 43.7232 -97.887
rradius 93.0327
rwrist -13.2072
rhand 40.8914 -12.3862
rfingers 7.12502
rthumb 63.1299 -22.3984
lclavicle 3.61788e-014 6.36111e-015
lhumerus -38.3976 -23.8296 89.0325
lradius 121.68
lwrist 7.38535
lhand 9.07687 28.0041
lfingers 7.12502
lthumb 34.2503 54.7319
rfemur -3.17525 16.3322 18.3137
rtibia 26.19
rfoot -18.2294 -16.5984
rtoes 4.52805
lfemur -24.1169 -0.13304 -6.19593
ltibia 31.288
lfoot 6.26477 1.2062
ltoes -5.37785
1939
root -1.03048 18.8661 1.6215 -10.0324 -39.5142 8.51073
lowerback 8.86829 0.964802 1.14854
upperback 2.4909 1.35892 0.113668
thorax -2.36495 0.662156 -0.673158
lowerneck -2.95084 -2.40794 -7.25457
upperneck 2.12142 -3.08015 5.67219
head 1.41911 -1.51449 3.04227
rclavicle -3.66758e-014 1.98785e-014
rhumerus -54.2438 43.2615 -98.2874
rradius 93.4594
rwrist -13.4447
rhand 48.8382 -14.8419
rfingers 7.12502
rthumb 69.1734 -13.0462
lclavicle -3.66758e-014 1.98785e-014
lhumerus -38.4193 -23.5663 88.8655
lradius 121.88
lwrist 7.2941
lhand 8.73291 27.9793
lfingers 7.12502
lthumb 33.9236 54.78
rfemur -2.95752 16.1039 17.8579
rtibia 25.8573
rfoot -18.2447 -16.776
rtoes 4.71237
lfemur -23.9023 -1.14905 -6.4522
ltibia 28.938
lfoot 6.23051 1.88864
ltoes -5.33116
1940
root -1.04653 18.8825 1.61779 -10.1575 -39.5061 8.80216
lowerback 9.13609 0.954394 0.970704
upperback 2.46119 1.33477 0.202108
thorax -2.55052 0.649019 -0.484971
lowerneck -2.83387 -2.36327 -7.29038
upperneck 2.07156 -3.02459 5.64787
head 1.37822 -1.48866 3.04293
rclavicle -4.25399e-014 -1.43125e-014
rhumerus -54.8119 42.7029 -98.1727
rradius 94.0105
rwrist -13.2492
rhand 49.7816 -14.0302
rfingers 7.12502
rthumb 69.808 -10.3682
lclavicle -4.25399e-014 -1.43125e-014
lhumerus -38.4927 -23.1985 88.9086
lradius 122.084
lwrist 7.25171
lhand 8.30917 27.9807
lfingers 7.12502
lthumb 33.5209 54.8695
rfemur -2.80653 16.1113 17.6437
rtibia 25.4798
rfoot -18.0525 -16.7967
rtoes 4.74806
lfemur -23.5221 -1.92117 -6.32755
ltibia 26.5814
lfoot 6.03974 2.7986
ltoes -5.38833
